<svg width="74" height="23" viewBox="0 0 74 23" fill="none" xmlns="http://www.w3.org/2000/svg">
<path d="M3.30273 19.7002H13.4102V22H0.475586V0.671875H3.30273V19.7002ZM32.0576 12.0244C32.0576 14.1143 31.7061 15.9404 31.0029 17.5029C30.2998 19.0557 29.3037 20.2422 28.0146 21.0625C26.7256 21.8828 25.2217 22.293 23.5029 22.293C21.8232 22.293 20.334 21.8828 19.0352 21.0625C17.7363 20.2324 16.7256 19.0557 16.0029 17.5322C15.29 15.999 14.9238 14.2266 14.9043 12.2148V10.6768C14.9043 8.62598 15.2607 6.81445 15.9736 5.24219C16.6865 3.66992 17.6924 2.46875 18.9912 1.63867C20.2998 0.798828 21.7939 0.378906 23.4736 0.378906C25.1826 0.378906 26.6865 0.793945 27.9854 1.62402C29.2939 2.44434 30.2998 3.64063 31.0029 5.21289C31.7061 6.77539 32.0576 8.59668 32.0576 10.6768V12.0244ZM29.2598 10.6475C29.2598 8.11816 28.752 6.17969 27.7363 4.83203C26.7207 3.47461 25.2998 2.7959 23.4736 2.7959C21.6963 2.7959 20.2949 3.47461 19.2695 4.83203C18.2539 6.17969 17.7314 8.05469 17.7021 10.457V12.0244C17.7021 14.4756 18.2148 16.4043 19.2402 17.8105C20.2754 19.207 21.6963 19.9053 23.5029 19.9053C25.3193 19.9053 26.7256 19.2461 27.7217 17.9277C28.7178 16.5996 29.2305 14.7002 29.2598 12.2295V10.6475ZM52.0234 19.2021C51.3008 20.2373 50.29 21.0137 48.9912 21.5312C47.7021 22.0391 46.1982 22.293 44.4795 22.293C42.7412 22.293 41.1982 21.8877 39.8506 21.0771C38.5029 20.2568 37.458 19.0947 36.7158 17.5908C35.9834 16.0869 35.6074 14.3438 35.5879 12.3613V10.501C35.5879 7.28809 36.335 4.79785 37.8291 3.03027C39.333 1.2627 41.4424 0.378906 44.1572 0.378906C46.3838 0.378906 48.1758 0.950195 49.5332 2.09277C50.8906 3.22559 51.7207 4.83691 52.0234 6.92676H49.2109C48.6836 4.10449 47.0039 2.69336 44.1719 2.69336C42.2871 2.69336 40.8564 3.35742 39.8799 4.68555C38.9131 6.00391 38.4248 7.91797 38.415 10.4277V12.1709C38.415 14.5635 38.9619 16.4678 40.0557 17.8838C41.1494 19.29 42.6289 19.9932 44.4941 19.9932C45.5488 19.9932 46.4717 19.876 47.2627 19.6416C48.0537 19.4072 48.708 19.0117 49.2256 18.4551V13.665H44.2891V11.3799H52.0234V19.2021ZM73.1318 12.0244C73.1318 14.1143 72.7803 15.9404 72.0771 17.5029C71.374 19.0557 70.3779 20.2422 69.0889 21.0625C67.7998 21.8828 66.2959 22.293 64.5771 22.293C62.8975 22.293 61.4082 21.8828 60.1094 21.0625C58.8105 20.2324 57.7998 19.0557 57.0771 17.5322C56.3643 15.999 55.998 14.2266 55.9785 12.2148V10.6768C55.9785 8.62598 56.335 6.81445 57.0479 5.24219C57.7607 3.66992 58.7666 2.46875 60.0654 1.63867C61.374 0.798828 62.8682 0.378906 64.5479 0.378906C66.2568 0.378906 67.7607 0.793945 69.0596 1.62402C70.3682 2.44434 71.374 3.64063 72.0771 5.21289C72.7803 6.77539 73.1318 8.59668 73.1318 10.6768V12.0244ZM70.334 10.6475C70.334 8.11816 69.8262 6.17969 68.8105 4.83203C67.7949 3.47461 66.374 2.7959 64.5479 2.7959C62.7705 2.7959 61.3691 3.47461 60.3438 4.83203C59.3281 6.17969 58.8057 8.05469 58.7764 10.457V12.0244C58.7764 14.4756 59.2891 16.4043 60.3145 17.8105C61.3496 19.207 62.7705 19.9053 64.5771 19.9053C66.3936 19.9053 67.7998 19.2461 68.7959 17.9277C69.792 16.5996 70.3047 14.7002 70.334 12.2295V10.6475Z" fill="black"/>
</svg>
